<?xml version="1.0" encoding="UTF-8"?>
<svg version="1.1" viewBox="0 0 1920 1920" width="1280" height="1280" xmlns="http://www.w3.org/2000/svg">
<path transform="translate(0)" d="m0 0h1920v1920h-1920z" fill="#FCFCFC"/>
<path transform="translate(1325,718)" d="m0 0h5v2h-2v90l3 1v7l9 2 14 4 11 27 22 56 15 38 8 20v3l18 2 25 5 13 5 11 7 9 10 6 12 4 16-1 1-138 4-5 1-4 11-7 10-7 7-11 7-10 3-48 1-157 2-17-2-16-5-17-9-11-9-8-8-8-13-5-12-3-14v-8h-30l-137-1-3-3-1-4v-10l6-24 7-20 8-26 3-13v-11l-188-1-1-1v-36l1-1h358l14 8 16 6 43 3-1 6-5 7-8 5-6 2h-6l3 118 3 10 6 10 11 9 14 7 6 2h48l100-2h21l1-29v-18l-2-36-4-35-10-60-7-40-1-2 5-4 16-20-1-4-7-7-6-7-5 3-3 2-7 1h-14l-14-12h3l5 3 10-17 9-10 8-7 10-6 13-5 14-3z" fill="#00CCFD"/>
<path transform="translate(1083,616)" d="m0 0h15l10 4 9 6 9 10 6 10 15 32-4-10-12-26h3l14 13 11 9 14 13 8 7 30 27 14 12 10 9 14 11 13 11-8 14-5-3v1l11 9h14l9-2 5-4 7 6 7 8 2 2-1 5-10 11-8 10-2 2 2 7 14 81 5 38 2 23 1 23v18l-1 26-1 3-21 1-100 2h-48l-15-6-10-7-7-6-6-10-3-10-2-81v-37l12-3 8-5 4-6 2-6h-15l-28-2-16-6-11-6-9-7-8-10-8-15-4-12v-18l2-31 4-31 6-32 7-29 7-25 15-10 14-6z" fill="#FCFCFC"/>
<path transform="translate(791,568)" d="m0 0h9l10 5 6 7 2 4h25l23 3 19 5 16 6 16 8 16 10 10 8 10 9 10 10 13 17 9 15 9 19 6 19-1 5-85 18-248 52h-5l-2-16v-5h-123l-8-3-4-5 1-6 5-4 6-2h123l2-19 5-21 7-19 11-21h-135l-8-4-2-3v-6l6-5 7-2h136l9 2 9-11 4-4-126-1-8-4-3-4 1-6 5-4 5-2h139l10 2 16-10 19-9 5-1v-9l5-10 6-5z" fill="#FE6600"/>
<path transform="translate(1083,616)" d="m0 0h15l10 4 9 6 9 10 6 10 15 32-4-10-12-26h3l14 13 11 9 14 13 8 7 30 27 14 12 10 9 14 11 13 11-8 14-5-3v1l11 9h14l9-2 5-4 7 6 7 8 2 2-1 5-10 11-8 10-2 1-2-11-3-3 3 6v8l-4 7-8 4-8-1-6-4-3-6v-10l-14-11-30-23-18-14-10-7-60-32-1 11-11 64 1 5 100 21 3 1 39 134 7 25-3 1-37 3h-6l-7-30-18-81v-5l-23-2-88-6-16-6-11-6-9-7-8-10-8-15-4-12v-18l2-31 4-31 6-32 7-29 7-25 15-10 14-6z" fill="#FD0100"/>
<path transform="translate(949,999)" d="m0 0h66l5 19 5 12 10 15 9 9 1 6v17l-3 17-5 15-8 16-9 13-11 12-11 10-15 9-13 5-16 3h-12l-19-3-16-6-14-8-14-12-10-12-8-13-6-14-4-15-2-16v-11l2-16 6-20 9-17 10-13 1-1z"/>
<path transform="translate(1470,1034)" d="m0 0h18l5 17 2 17v9l-2 17-4 15-7 16-10 15-12 13-14 10-16 8-13 4-15 2h-11l-19-3-16-6-15-9-12-11-7-7-7-10-8-15-5-15-3-15v-9l4-1 16-1 12-5 11-8 8-9 6-11 2-4h8l-6 7-6 9-4 12v19l4 11 6 10 9 8 12 6 7 2h17l13-4 10-7 7-7 7-14 2-9v-12l-3-12-7-12-9-9 10-1z"/>
<path transform="translate(665,789)" d="m0 0h324l8 3 5 6 1 3v9l-4 7-6 4-3 1h-326l-8-4-4-7-1-6 3-9 7-6z" fill="#f60"/>
<path transform="translate(1120,517)" d="m0 0 16 2 14 7 10 9 7 11 3 9 1 6v12l-3 12-6 11-5 6-11 8-12 5-6 1h-13l-12-3-12-7-9-9-6-10-3-9-1-7v-9l3-13 6-11 9-10 10-6 8-3z" fill="#FE0100"/>
<path transform="translate(1240,1258)" d="m0 0h8l11 2 10 5 9 8 6 10 3 12v12l-3 12-7 11-8 7-10 5-11 2-14-1-10-4-6-4-5-5-6-8-4-13v-16l4-13 7-9 8-7 12-5z"/>
<path transform="translate(1143,1258)" d="m0 0h9l13 3 10 6 8 8 6 12 1 4v19l-3 10-6 9-7 7-12 6-10 2h-8l-13-3-11-7-7-8-5-10-2-11v-8l2-10 6-12 6-7 9-6 9-3z"/>
<path transform="translate(1302,1259)" d="m0 0h34l12 3 9 6 8 9 4 9 2 12-1 14-4 11-7 9-10 7-9 3-7 1h-31z"/>
<path transform="translate(1217,818)" d="m0 0 5 1 10 5 7 6 8 14 6 15 8 24 14 47 14 46v1l-7 1h6l8 26 10 5v18l-3 1v-8l-9-3-26-11-3-6-5-18v-2l3-1-17-59-21-72-8-27z" fill="#FE0300"/>
<path transform="translate(1396,1041)" d="m0 0 12 2 8 4 6 5 6 10 2 6v15l-4 10-8 9-12 6-5 1h-9l-10-3-10-7-7-11-2-8v-10l3-10 6-8 7-6 10-4z"/>
<path transform="translate(942,1041)" d="m0 0 13 2 9 5 7 7 5 10 1 5v11l-4 11-6 8-11 7-8 2h-9l-10-3-9-6-7-9-3-9v-14l4-10 6-8 9-6 6-2z"/>
<path transform="translate(827,1259)" d="m0 0h14l16 39 17 42v3h-17l-4-8-3-9-32 1-6 15-1 1h-17l1-6 31-77z"/>
<path transform="translate(798,596)" d="m0 0h6l-3 2-16 6-16 8-16 10-13 11-15 15-12 16-9 16-7 15-6 19-4 21-1 12v17l1 17-15 3h-5l-2-14v-22l3-22 5-19 8-20 8-15 10-14 11-13 12-12 13-10 18-11 20-9 21-6z" fill="#FDFDFD"/>
<path transform="translate(937,1029)" d="m0 0h13l13 4 11 7 8 9 5 10 2 7 1 10-2 12-4 10-7 9-8 7-10 5-8 2h-16l-12-4-9-6-8-8-7-14-2-9v-10l3-12 5-9 9-10 10-6 8-3zm5 12-10 2-8 4-6 5-6 10-2 6v14l3 9 7 9 9 6 10 3h9l10-3 11-8 6-10 2-7v-11l-3-10-6-8-7-6-9-4z" fill="#F1FAFD"/>
<path transform="translate(456,680)" d="m0 0h138l8 3 4 5-1 6-5 4-5 2h-140l-8-4-3-3v-6l6-5z" fill="#f60"/>
<path transform="translate(492,714)" d="m0 0h132l9 2 5 5 1 5-5 6-5 2h-143l-8-5-1-2v-6l6-5z" fill="#f60"/>
<path transform="translate(1252,980)" d="m0 0h6l8 27 31 13 4 2v8l-15 1h-73v-47l17-2z" fill="#FE0400"/>
<path transform="translate(1131,641)" d="m0 0 4 2 13 12 11 9 14 13 8 7 30 27 14 12 10 9 14 11 13 11-8 14-5-3-6-3-13-11-14-11-17-14-13-12-8-7-11-10-8-7-11-10-5-12-12-26z" fill="#FD120E"/>
<path transform="translate(906,1258)" d="m0 0h11l10 3 7 5-2 4-7 7-1 2-10-4h-7l-3 4 1 7 8 5 15 8 6 7 2 5 1 7-2 9-6 8-8 6-10 3h-7l-10-3-9-6-3-4 11-13 9 6 9 1 5-4 1-5-3-5-22-11-5-6-2-6v-11l3-8 7-7 6-3z"/>
<path transform="translate(1047,1259)" d="m0 0h46l1 1v15h-29v17h28l1 1v15l-1 1h-28v33l-1 1h-17z"/>
<path transform="translate(745,1259)" d="m0 0h47v16l-29 1-1 16h29l1 1v15l-1 1h-28v33l-1 1h-17z"/>
<path transform="translate(944,1259)" d="m0 0h56v18h-19v66h-18v-66h-19z"/>
<path transform="translate(1142,1275)" d="m0 0h12l10 5 6 9 2 10-1 11-4 8-5 5-8 4h-12l-8-4-6-7-3-9v-12l3-8 4-6 7-5z" fill="#F6FBFD"/>
<path transform="translate(1239,1275)" d="m0 0h11l7 3 6 5 4 8 1 4v12l-3 9-7 8-7 3h-12l-8-4-7-8-2-6-1-9 2-10 4-7 7-6z" fill="#F8FCFD"/>
<path transform="translate(430,646)" d="m0 0h85l5 4 1 9-5 6-3 1h-81l-6-4-2-5 1-6z" fill="#f60"/>
<path transform="translate(1320,1275)" d="m0 0h12l10 3 5 5 3 4 2 7v14l-3 8-5 6-9 4-6 1h-9z" fill="#F8FCFD"/>
<path transform="translate(1098,1369)" d="m0 0h11l7 4 4 5 1 3v8l-3 6-5 5-5 2h-8l-8-4-4-5-2-9 2-7 5-5z" fill="#F1FAFD"/>
<path transform="translate(946,1369)" d="m0 0h11l6 4 4 4 1 3v11l-4 6-6 4-3 1h-7l-7-3-6-7-1-3v-8l4-7 5-4z" fill="#F1FAFD"/>
<path transform="translate(1263,791)" d="m0 0h10l10 5 8 7-6 8-2 1-2-11-3-3 3 6v8l-4 7-8 4-8-1-6-4-3-6v-8l3-6 6-5h2z"/>
<path transform="translate(1e3 1370)" d="m0 0h12l5 3 1 2v7l-5 5-2 1 8 12v1h-5l-8-11-1 1v9l-5 1z"/>
<path transform="translate(1137,1369)" d="m0 0h12l8 5-2 3-4-1-4-2h-8l-5 3-3 4v8l3 5 9 3 8-2 3-5-7-1v-4h13l-1 8-6 7-5 2h-9l-8-4-4-5-2-6 1-8 4-6z"/>
<path transform="translate(1098,1369)" d="m0 0h11l7 4 4 5 1 3v8l-3 6-5 5-5 2h-8l-8-4-4-5-2-9 2-7 5-5zm2 4-5 3-4 5v8l4 6 8 3 8-2 5-6 1-6-3-7-6-4z"/>
<path transform="translate(946,1369)" d="m0 0h11l6 4 4 4 1 3v11l-4 6-6 4-3 1h-7l-7-3-6-7-1-3v-8l4-7 5-4zm1 4-6 4-3 7 1 6 5 6 8 2 8-3 4-6v-7l-3-5-3-3-3-1z"/>
<path transform="translate(1297,1370)" d="m0 0h12l5 4 1 7-4 5-4 1 8 13v1h-5l-8-12-1 12h-4z"/>
<path transform="translate(1196,1369)" d="m0 0 7 6 14 15 2 1v-21h4v32l-5-4-5-5-9-10-3-3-1 21h-4z"/>
<path transform="translate(1177,1369)" d="m0 0 3 4 12 27v1h-5l-3-7-14-1-2 7-5 1 3-9 10-22z"/>
<path transform="translate(826,1369)" d="m0 0 3 4 12 27-4 1-4-7-14-1-2 7-5 1 3-9 10-22z"/>
<path transform="translate(771,1370)" d="m0 0h12l4 2 2 3v7l-5 5-9 1v13h-4z"/>
<path transform="translate(1244,1370)" d="m0 0h4v12l14-1 1-11h4v31h-4v-15h-15v15h-4z"/>
<path transform="translate(1049,1369)" d="m0 0h9l4 3-2 4-4-2h-7l1 5 9 5 4 4 1 5-2 5-5 4-9-1-5-5v-3l4-1 3 4 4 1 4-2v-5l-6-4-5-3-3-4 1-7z"/>
<path transform="translate(974,1370)" d="m0 0h4l1 22 2 4 8 1 4-4 1-23h4v24l-3 5-5 3h-7l-6-3-3-6z"/>
<path transform="translate(853,1369)" d="m0 0h12l3 1v5l-5-1h-8l-6 4-2 4 1 9 6 5h11l3-1v5l-5 2h-8l-8-4-4-5-1-3v-10l4-6 5-4z"/>
<path transform="translate(873,1370)" d="m0 0h17v4h-13l1 7 12 1v4h-13l1 10 12 1v4h-17z"/>
<path transform="translate(1321,1370)" d="m0 0h17v4h-13v8h13v4h-13v11h13v4h-17z"/>
<path transform="translate(1274,1370)" d="m0 0h17v4h-13v8h13v4h-13v11h13v4h-17z"/>
<path transform="translate(833,1287)" d="m0 0 2 1 8 20v3h-19l6-16z" fill="#F0FAFD"/>
<path transform="translate(908,1370)" d="m0 0h5l6 10h2l6-10h5l-6 11-3 5-1 15h-4l-1-15-9-15z"/>
<path transform="translate(1069,1370)" d="m0 0h5v27h10v4h-14l-1-1z"/>
<path transform="translate(1288,769)" d="m0 0 7 6 7 8 2 2-1 5-9-5-13-9v-2z"/>
<path transform="translate(796,1370)" d="m0 0h4v27h10v4h-14z"/>
<path transform="translate(1263,791)" d="m0 0h10l10 5 8 7-6 8-2 1-2-11-3-4-11-3-7 1 1-2h2z" fill="#09252C"/>
<path transform="translate(776,1373)" d="m0 0 6 1 3 3-1 5-3 2h-6v-10z" fill="#D3F4FD"/>
<path transform="translate(1301,1373)" d="m0 0 7 1 2 2v6l-3 2h-6z" fill="#E5F8FD"/>
<path transform="translate(1010,1373)" d="m0 0 7 1 2 3-1 5-2 2h-6z" fill="#E7F8FD"/>
<path transform="translate(826,1379)" d="m0 0 3 4 2 6h-9l3-9z" fill="#E0F7FD"/>
<path transform="translate(1177,1379)" d="m0 0 3 4 2 6h-9l1-5z" fill="#DBF6FD"/>
</svg>
